<?xml version="1.0" encoding="UTF-8"?>
<svg width="100%" height="100%" fill="none" version="1.1" viewBox="0 0 67.75 42.647" xmlns="http://www.w3.org/2000/svg">
 <path d="m7.4766 23.45-6.2941 6.6887c-0.78788 0.838-1.1818 1.8342-1.1825 2.9899 0 0.7845 0.18288 1.4664 0.55138 2.046l3.3839 5.9008c0.47025 0.682 1.1261 1.0759 1.9656 1.1784l2.9906-0.0763c0.47025 0 0.91575-0.1306 1.3372-0.394 1.0471-0.8903 1.1544-1.8885 0.3142-2.9899-0.211-0.209-0.4441-0.3658-0.7067-0.4716l-1.4156-1.0244 0.31351-2.7527 4.4055-4.2495 6.2184 9.9124c0.8897 1.4699 2.1471 2.2055 3.7744 2.2055h6.688c1.419 0 2.1265-0.7102 2.1265-2.1258 0-0.7872-0.3424-1.3901-1.0244-1.8088l-3.3839-1.4953-4.4832-7.0028h12.776l5.7147 10.306c0.8388 1.5724 2.1519 2.3602 3.9346 2.3602h6.6083c1.4183 0 2.1264-0.7074 2.1264-2.1223 0-0.7377-0.3169-1.3145-0.9446-1.7325l-3.4609-1.5757-5.2731-9.0475 9.2056-10.78 10.229-1.2582c1.1014-0.1058 1.9408-0.6276 2.5197-1.5723l1.102-2.5203c0.1025-0.2077 0.1568-0.4449 0.1568-0.7075 0-0.7879-0.3678-1.3097-1.1007-1.5758l-4.4062-2.4358v-0.31694c0-1.9917-0.9439-3.1185-2.8332-3.3811l-1.4183-0.16019c0.1052-0.25919 0.1595-0.49638 0.1595-0.70744 0-0.7872-0.275-1.441-0.8257-1.9656-0.5541-0.52525-1.1941-0.78788-1.9305-0.78788-0.7335 0-1.364 0.26263-1.8865 0.78788-0.5245 0.52457-0.7871 1.1777-0.7871 1.9656v0.23719l-14.026 2.2131c-4.6925 0.019-0.3596 0.07013-13.602 0.07013h-3.7813c-2.4062 0 0.1562 0.00524-1.9546 0h-1.9683c-2.2543 0-4.2487 0.60224-5.9805 1.8088l-8.1799 5.7441c-0.84288 0.5761-1.2622 1.3633-1.2622 2.3595 0 0.7879 0.275 1.4561 0.82569 2.0082 0.55069 0.55 1.2203 0.825 2.0075 0.825 0.20831 0 0.44481-0.0254 0.70743-0.0804 0.26263 2.0474 0.91919 3.8843 1.969 5.511z" fill="#000"/>
</svg>
