<svg width="100%" height="100%" viewBox="0 0 24 24" fill="none" xmlns="http://www.w3.org/2000/svg">
    <path fill-rule="evenodd" clip-rule="evenodd" d="M18.5 12C18.5 15.5899 15.5899 18.5 12 18.5C8.41015 18.5 5.5 15.5899 5.5 12C5.5 8.41015 8.41015 5.5 12 5.5C15.5899 5.5 18.5 8.41015 18.5 12ZM20 12C20 16.4183 16.4183 20 12 20C7.58172 20 4 16.4183 4 12C4 7.58172 7.58172 4 12 4C16.4183 4 20 7.58172 20 12ZM16.0303 10.5303C16.3232 10.2374 16.3232 9.76256 16.0303 9.46967C15.7374 9.17678 15.2626 9.17678 14.9697 9.46967L11 13.4393L9.53033 11.9697C9.23744 11.6768 8.76256 11.6768 8.46967 11.9697C8.17678 12.2626 8.17678 12.7374 8.46967 13.0303L10.4697 15.0303C10.7626 15.3232 11.2374 15.3232 11.5303 15.0303L16.0303 10.5303Z" fill="#6366F1"/>
</svg>
