<?xml version="1.0" encoding="UTF-8"?>
<svg width="100%" height="100%" fill="none" version="1.1" viewBox="0 0 517.16 89.562" xmlns="http://www.w3.org/2000/svg">
 <g fill="#34313f">
  <path d="m0 0v89.562h22.39v-67.171h44.781v22.39h-22.39v22.39h22.39v22.39h22.39v-67.171h44.781v22.39h-22.39v22.39h22.39v22.39h22.391v-89.562z"/>
  <path d="m206.53 28.828c5.058 0 9.166 1.2187 12.324 3.656 3.185 2.4373 5.1 6.6333 5.742 12.588h-7.335c-0.447-2.7419-1.467-5.013-3.06-6.8133-1.593-1.828-4.15-2.742-7.671-2.742-4.806 0-8.243 2.3265-10.311 6.9795-1.342 3.019-2.012 6.7441-2.012 11.176 0 4.4591 0.95 8.212 2.85 11.259s4.89 4.5699 8.97 4.5699c3.13 0 5.603-0.9417 7.419-2.825 1.845-1.9111 3.116-4.5146 3.815-7.8104h7.335c-0.838 5.8993-2.934 10.22-6.287 12.962-3.354 2.7143-7.643 4.0712-12.869 4.0712-5.868 0-10.549-2.1186-14.042-6.3561-3.493-4.2653-5.239-9.583-5.239-15.953 0-7.8104 1.914-13.89 5.742-18.238 3.829-4.3484 8.705-6.5226 14.629-6.5226z"/>
  <path d="m228.92 30.116h7.168v7.6858c0.587-1.4956 2.026-3.3097 4.317-5.4424 2.292-2.1603 4.932-3.2405 7.922-3.2405 0.14 0 0.378 0.0139 0.713 0.0416s0.908 0.0831 1.719 0.1662v7.8935c-0.448-0.0831-0.867-0.1385-1.258-0.1662-0.363-0.0277-0.768-0.0416-1.216-0.0416-3.8 0-6.72 1.2187-8.76 3.656-2.04 2.4096-3.06 5.1931-3.06 8.3505v25.592h-7.545z"/>
  <path d="m272.55 29.118c3.186 0 6.274 0.7478 9.264 2.2435 2.99 1.4679 5.268 3.3789 6.832 5.7331 1.509 2.2434 2.515 4.8608 3.018 7.852 0.448 2.0495 0.671 5.3177 0.671 9.8045h-32.904c0.139 4.5146 1.215 8.1428 3.227 10.885 2.012 2.7143 5.128 4.0714 9.348 4.0714 3.94 0 7.083-1.2879 9.431-3.8636 1.341-1.4956 2.291-3.2267 2.85-5.1931h7.419c-0.195 1.6341-0.852 3.462-1.97 5.4839-1.09 1.9941-2.319 3.6282-3.688 4.9023-2.292 2.2157-5.128 3.7113-8.509 4.4868-1.817 0.4427-3.871 0.6647-6.162 0.6647-5.589 0-10.326-2.008-14.21-6.024-3.884-4.0437-5.826-9.6937-5.826-16.95 0-7.1457 1.956-12.948 5.868-17.407 3.912-4.4591 9.026-6.6887 15.341-6.6887zm12.031 19.692c-0.308-3.2405-1.02-5.8301-2.138-7.7688-2.068-3.6006-5.519-5.4008-10.354-5.4008-3.465 0-6.371 1.2463-8.718 3.739-2.348 2.465-3.591 5.6085-3.731 9.4306z"/>
  <path d="m302.99 52.882c0 4.7638 1.02 8.7521 3.06 11.965s5.31 4.8192 9.809 4.8192c3.493 0 6.357-1.4818 8.593-4.4453 2.263-2.9912 3.395-7.2703 3.395-12.837 0-5.6224-1.16-9.7769-3.479-12.463-2.32-2.7143-5.184-4.0714-8.593-4.0714-3.801 0-6.888 1.4402-9.264 4.3206-2.347 2.8805-3.521 7.118-3.521 12.713zm11.36-23.556c3.437 0 6.315 0.7201 8.634 2.1603 1.342 0.8309 2.865 2.285 4.569 4.3622v-22.476h7.252v61.237h-6.791v-6.1902c-1.76 2.742-3.842 4.7223-6.245 5.9409-2.403 1.219-5.156 1.828-8.258 1.828-5.002 0-9.333-2.0772-12.994-6.2317-3.661-4.1822-5.491-9.7353-5.491-16.659 0-6.481 1.663-12.09 4.988-16.826 3.353-4.7638 8.132-7.1457 14.336-7.1457z"/>
  <path d="m342.56 30.323h7.671v44.287h-7.671zm0-16.742h7.671v8.4751h-7.671z"/>
  <path d="m359.75 17.694h7.629v12.422h7.168v6.1071h-7.168v29.04c0 1.551 0.531 2.5897 1.593 3.1159 0.586 0.3047 1.564 0.457 2.934 0.457h1.173c0.42-0.0277 0.909-0.0693 1.468-0.1246v5.8993c-0.867 0.2493-1.775 0.4293-2.725 0.5401-0.922 0.1108-1.928 0.1662-3.018 0.1662-3.521 0-5.91-0.8863-7.168-2.6589-1.257-1.8003-1.886-4.1268-1.886-6.9795v-29.455h-6.078v-6.1071h6.078z"/>
  <path d="m396.01 28.828c5.058 0 9.166 1.2187 12.324 3.656 3.185 2.4373 5.099 6.6333 5.742 12.588h-7.335c-0.447-2.7419-1.467-5.013-3.06-6.8133-1.593-1.828-4.15-2.742-7.671-2.742-4.806 0-8.243 2.3265-10.311 6.9795-1.342 3.019-2.012 6.7441-2.012 11.176 0 4.4591 0.95 8.212 2.85 11.259s4.89 4.5699 8.97 4.5699c3.13 0 5.603-0.9417 7.419-2.825 1.845-1.9111 3.116-4.5146 3.815-7.8104h7.335c-0.838 5.8993-2.934 10.22-6.287 12.962-3.354 2.7143-7.643 4.0712-12.869 4.0712-5.868 0-10.549-2.1186-14.042-6.3561-3.493-4.2653-5.239-9.583-5.239-15.953 0-7.8104 1.914-13.89 5.742-18.238 3.829-4.3484 8.705-6.5226 14.629-6.5226z"/>
  <path d="m418.4 13.581h7.545v61.029h-7.545z"/>
  <path d="m441.41 30.116v29.538c0 2.2711 0.364 4.1268 1.09 5.567 1.342 2.6589 3.843 3.9883 7.503 3.9883 5.254 0 8.831-2.3265 10.731-6.9795 1.034-2.4927 1.551-5.9132 1.551-10.262v-21.852h7.545v44.494h-7.126l0.084-6.5641c-0.978 1.6895-2.194 3.1159-3.647 4.2791-2.878 2.3266-6.371 3.4897-10.479 3.4897-6.399 0-10.759-2.1187-13.078-6.3562-1.257-2.2711-1.886-5.3039-1.886-9.0983v-30.245z"/>
  <path d="m477.63 13.373h7.335v22.143c1.649-2.1326 3.619-3.7528 5.91-4.8607 2.292-1.1356 4.779-1.7033 7.462-1.7033 5.588 0 10.115 1.911 13.58 5.7331 3.494 3.7945 5.24 9.403 5.24 16.826 0 7.0349-1.719 12.879-5.156 17.532s-8.201 6.9797-14.293 6.9797c-3.409 0-6.288-0.8172-8.635-2.4513-1.397-0.9694-2.892-2.5204-4.485-4.653v5.6916h-6.958zm19.617 56.044c4.08 0 7.125-1.6064 9.137-4.8192 2.04-3.2128 3.06-7.4503 3.06-12.713 0-4.6807-1.02-8.5582-3.06-11.632-2.012-3.0743-4.988-4.6114-8.928-4.6114-3.437 0-6.455 1.2602-9.054 3.7805-2.571 2.5204-3.856 6.6749-3.856 12.463 0 4.1822 0.531 7.575 1.593 10.178 1.984 4.9023 5.686 7.3534 11.108 7.3534z"/>
 </g>
</svg>
