<?xml version="1.0" encoding="UTF-8"?>
<svg width="176.14" height="30.685" fill="none" version="1.1" viewBox="0 0 176.14 30.685" xmlns="http://www.w3.org/2000/svg">
 <g transform="translate(0 -23.658)" clip-path="url(#clip0_2717_150011)" fill="#34313f">
  <rect x="30.685" y="23.658" width="7.6712" height="7.6712"/>
  <rect x="23.014" y="23.658" width="7.6712" height="7.6712"/>
  <rect x="23.014" y="31.329" width="7.6712" height="7.6712"/>
  <rect x="23.014" y="39" width="7.6712" height="7.6712"/>
  <rect x="23.014" y="46.671" width="7.6712" height="7.6712"/>
  <rect x="38.356" y="23.658" width="7.6712" height="7.6712"/>
  <rect x="46.027" y="23.658" width="7.6712" height="7.6712"/>
  <rect x="46.027" y="31.329" width="7.6712" height="7.6712"/>
  <rect x="38.356" y="39" width="7.6712" height="7.6712"/>
  <rect x="46.027" y="39" width="7.6712" height="7.6712"/>
  <rect x="46.027" y="46.671" width="7.6712" height="7.6712"/>
  <rect x="7.6714" y="23.658" width="7.6712" height="7.6712"/>
  <rect y="23.658" width="7.6712" height="7.6712"/>
  <rect y="31.329" width="7.6712" height="7.6712"/>
  <rect y="39" width="7.6712" height="7.6712"/>
  <rect y="46.671" width="7.6712" height="7.6712"/>
  <rect x="15.342" y="23.658" width="7.6712" height="7.6712"/>
  <rect x="23.014" y="23.658" width="7.6712" height="7.6712"/>
  <rect x="23.014" y="31.329" width="7.6712" height="7.6712"/>
  <rect x="15.342" y="39" width="7.6712" height="7.6712"/>
  <rect x="23.014" y="39" width="7.6712" height="7.6712"/>
  <rect x="23.014" y="46.671" width="7.6712" height="7.6712"/>
  <path d="m70.661 32.972c1.7175 0 3.1124 0.4176 4.1847 1.2526 1.0818 0.8351 1.7318 2.2727 1.95 4.3128h-2.4909c-0.1518-0.9394-0.4982-1.7175-1.039-2.3343-0.5409-0.6263-1.4092-0.9394-2.6048-0.9394-1.6321 0-2.7993 0.7971-3.5015 2.3912-0.4555 1.0344-0.6832 2.3106-0.6832 3.8289 0 1.5278 0.3226 2.8135 0.9679 3.8574 0.6452 1.0438 1.6606 1.5657 3.046 1.5657 1.0628 0 1.9026-0.3227 2.5194-0.9679 0.6262-0.6548 1.058-1.5468 1.2952-2.676h2.4909c-0.2846 2.0212-0.9963 3.5015-2.135 4.441-1.1387 0.9299-2.5953 1.3949-4.3698 1.3949-1.9927 0-3.5821-0.726-4.7683-2.1778-1.1861-1.4613-1.7792-3.2832-1.7792-5.4658 0-2.6759 0.65-4.7588 1.95-6.2486s2.9559-2.2347 4.9676-2.2347zm7.6019 0.4413h2.434v2.6332c0.1993-0.5124 0.688-1.1339 1.4661-1.8646 0.7781-0.7401 1.6748-1.1102 2.6902-1.1102 0.0474 0 0.1281 0.0047 0.2419 0.0142 0.1139 0.0095 0.3084 0.0285 0.5836 0.0569v2.7045c-0.1518-0.0285-0.2941-0.0475-0.427-0.057-0.1234-0.0095-0.2609-0.0142-0.4128-0.0142-1.2905 0-2.2821 0.4175-2.9748 1.2526-0.6927 0.8255-1.0391 1.7792-1.0391 2.8609v8.768h-2.5621zm14.818-0.3416c1.0818 0 2.1303 0.2562 3.1457 0.7686 1.0153 0.5029 1.7887 1.1577 2.3201 1.9643 0.5124 0.7686 0.854 1.6653 1.0248 2.6901 0.1518 0.7022 0.2277 1.8219 0.2277 3.3592h-11.174c0.0475 1.5467 0.4128 2.7898 1.096 3.7292 0.6833 0.93 1.7413 1.3949 3.1742 1.3949 1.3379 0 2.4055-0.4412 3.2026-1.3237 0.4554-0.5124 0.7781-1.1055 0.9678-1.7792h2.5194c-0.0664 0.5598-0.2894 1.1861-0.669 1.8788-0.37 0.6833-0.7876 1.2431-1.2525 1.6796-0.7781 0.7591-1.7413 1.2716-2.8895 1.5373-0.6168 0.1518-1.3142 0.2277-2.0923 0.2277-1.8979 0-3.5063-0.688-4.8253-2.0639-1.319-1.3854-1.9785-3.3212-1.9785-5.8074 0-2.4482 0.6643-4.4361 1.9928-5.9639 1.3284-1.5277 3.065-2.2916 5.2095-2.2916zm4.0851 6.7468c-0.1044-1.1103-0.3464-1.9975-0.7259-2.6617-0.7022-1.2336-1.8741-1.8504-3.5158-1.8504-1.1766 0-2.1635 0.427-2.9606 1.281-0.7971 0.8445-1.2193 1.9216-1.2668 3.2311zm6.2493 1.3949c0 1.6321 0.347 2.9985 1.039 4.0993 0.693 1.1007 1.803 1.6511 3.331 1.6511 1.186 0 2.159-0.5077 2.918-1.523 0.769-1.0248 1.153-2.4909 1.153-4.3982 0-1.9263-0.394-3.3497-1.181-4.2702-0.788-0.9299-1.761-1.3949-2.918-1.3949-1.291 0-2.339 0.4935-3.146 1.4804-0.797 0.9868-1.196 2.4387-1.196 4.3555zm3.858-8.0706c1.167 0 2.144 0.2468 2.932 0.7402 0.455 0.2847 0.973 0.7829 1.551 1.4945v-7.7004h2.463v20.98h-2.306v-2.1208c-0.598 0.9394-1.305 1.6179-2.121 2.0354s-1.751 0.6263-2.804 0.6263c-1.698 0-3.169-0.7117-4.412-2.1351-1.243-1.4328-1.865-3.3354-1.865-5.7077 0-2.2205 0.565-4.142 1.694-5.7647 1.139-1.6321 2.761-2.4482 4.868-2.4482zm9.58 0.3417h2.605v15.173h-2.605zm0-5.7362h2.605v2.9036h-2.605zm5.837 1.4091h2.591v4.2559h2.434v2.0923h-2.434v9.9494c0 0.5314 0.18 0.8873 0.541 1.0676 0.199 0.1043 0.531 0.1565 0.996 0.1565h0.399c0.142-0.0095 0.308-0.0237 0.498-0.0427v2.0212c-0.294 0.0854-0.603 0.1471-0.926 0.1851-0.313 0.0379-0.654 0.0569-1.024 0.0569-1.196 0-2.007-0.3037-2.434-0.911-0.427-0.6168-0.641-1.4139-0.641-2.3912v-10.092h-2.064v-2.0923h2.064zm12.314 3.8146c1.717 0 3.112 0.4176 4.184 1.2526 1.082 0.8351 1.732 2.2727 1.95 4.3128h-2.491c-0.151-0.9394-0.498-1.7175-1.039-2.3343-0.541-0.6263-1.409-0.9394-2.604-0.9394-1.633 0-2.8 0.7971-3.502 2.3912-0.455 1.0344-0.683 2.3106-0.683 3.8289 0 1.5278 0.322 2.8135 0.968 3.8574 0.645 1.0438 1.66 1.5657 3.046 1.5657 1.062 0 1.902-0.3227 2.519-0.9679 0.626-0.6548 1.058-1.5468 1.295-2.676h2.491c-0.284 2.0212-0.996 3.5015-2.135 4.441-1.139 0.9299-2.595 1.3949-4.37 1.3949-1.992 0-3.582-0.726-4.768-2.1778-1.186-1.4613-1.779-3.2832-1.779-5.4658 0-2.6759 0.65-4.7588 1.95-6.2486s2.956-2.2347 4.968-2.2347zm7.601-5.2237h2.563v20.909h-2.563zm7.816 5.665v10.12c0 0.7781 0.123 1.4139 0.37 1.9073 0.455 0.911 1.305 1.3664 2.548 1.3664 1.784 0 2.998-0.7971 3.644-2.3912 0.351-0.8541 0.526-2.026 0.526-3.5158v-7.4869h2.562v15.244h-2.419l0.028-2.2489c-0.332 0.5788-0.745 1.0675-1.238 1.4661-0.978 0.797-2.164 1.1956-3.559 1.1956-2.173 0-3.653-0.7259-4.441-2.1778-0.427-0.7781-0.64-1.8171-0.64-3.1172v-10.362zm12.299-5.7362h2.491v7.5866c0.56-0.7307 1.229-1.2858 2.007-1.6654 0.778-0.389 1.622-0.5836 2.533-0.5836 1.898 0 3.436 0.6548 4.612 1.9643 1.186 1.3 1.779 3.2216 1.779 5.7647 0 2.4102-0.583 4.4124-1.75 6.0066-1.168 1.5942-2.785 2.3913-4.854 2.3913-1.158 0-2.135-0.28-2.932-0.8398-0.475-0.3321-0.982-0.8635-1.523-1.5942v1.95h-2.363zm6.661 19.201c1.386 0 2.42-0.5504 3.103-1.6511 0.693-1.1008 1.039-2.5526 1.039-4.3555 0-1.6037-0.346-2.9322-1.039-3.9855-0.683-1.0533-1.693-1.5799-3.031-1.5799-1.168 0-2.192 0.4317-3.075 1.2952-0.873 0.8636-1.309 2.2869-1.309 4.2702 0 1.4328 0.18 2.5952 0.54 3.4872 0.674 1.6796 1.931 2.5194 3.772 2.5194z"/>
 </g>
 <defs>
  <clipPath id="clip0_2717_150011">
   <rect transform="translate(0 .64404)" width="177.97" height="76.712" fill="#fff"/>
  </clipPath>
 </defs>
</svg>
